<svg xmlns="http://www.w3.org/2000/svg" viewBox="0 0 32 32">
  <!-- Drop shadow -->
  <path d="M16 27.5 C16 27.5 4 20 4 12 C4 7 7.5 4 12 5 C14 5.5 15.2 7 16 9 C16.8 7 18 5.5 20 5 C24.5 4 28 7 28 12 C28 20 16 27.5 16 27.5Z"
        fill="rgba(0,0,0,0.15)" transform="translate(1,1.5)"/>
  <!-- Heart body -->
  <path d="M16 26 C16 26 4 18.5 4 11 C4 6.5 7.5 3.5 12 4.5 C14 5 15.2 6.5 16 8.5 C16.8 6.5 18 5 20 4.5 C24.5 3.5 28 6.5 28 11 C28 18.5 16 26 16 26Z"
        fill="#e84393" stroke="#c0306e" stroke-width="0.8"/>
  <!-- Highlight -->
  <ellipse cx="11.5" cy="9" rx="3" ry="1.8" fill="white" opacity="0.3" transform="rotate(-30 11.5 9)"/>
</svg>
